<?xml version="1.0" standalone="no" ?>
<!DOCTYPE svg PUBLIC "-//W3C//DTD SVG 1.1//EN" "http://www.w3.org/Graphics/SVG/1.1/DTD/svg11.dtd">
<svg width="555px" height="277px" viewBox="0 0 555 277" style="background-color: #ffffff00" xmlns="http://www.w3.org/2000/svg" xmlns:xlink="http://www.w3.org/1999/xlink" version="1.1" >
<path stroke="none" fill="#000000" transform="matrix(0.0666667 0 0 0.0666667 -442.533 -507.533)" d="M 8062.74,8385.09 L 8062.74,8420.44 L 7726.51,8614.57 L 7695.9,8596.89 L 8062.74,8385.09 Z " />
<path stroke="none" fill="#000000" transform="matrix(0.0666667 0 0 0.0666667 -442.533 -507.533)" d="M 8055.09,8489.05 L 8070.39,8515.56 L 7805.06,8668.75 L 7789.75,8642.24 L 8055.09,8489.05 Z " />
<path stroke="none" fill="#000000" transform="matrix(0.0666667 0 0 0.0666667 -442.533 -507.533)" d="M 7695.9,8596.89 L 7726.51,8614.57 L 7726.51,9002.81 L 7695.9,9020.49 L 7695.9,8596.89 Z " />
<path stroke="none" fill="#000000" transform="matrix(0.0666667 0 0 0.0666667 -442.533 -507.533)" d="M 7695.9,9020.49 L 7726.51,9002.81 L 8062.74,9196.94 L 8062.74,9214.61 L 8047.43,9223.45 L 7695.9,9020.49 Z " />
<path stroke="none" fill="#000000" transform="matrix(0.0666667 0 0 0.0666667 -442.533 -507.533)" d="M 7789.75,8975.14 L 7805.06,8948.63 L 8070.39,9101.82 L 8055.09,9128.33 L 7789.75,8975.14 Z " />
<path stroke="none" fill="#000000" transform="matrix(0.0666667 0 0 0.0666667 -442.533 -507.533)" d="M 8078.05,9223.45 L 8062.74,9214.61 L 8062.74,9196.94 L 8398.97,9002.81 L 8414.28,9011.65 L 8414.28,9029.33 L 8078.05,9223.45 Z " />
<path stroke="none" fill="#000000" transform="matrix(0.0666667 0 0 0.0666667 -442.533 -507.533)" d="M 8429.58,9002.81 L 8414.28,9011.65 L 8398.97,9002.81 L 8398.97,8614.57 L 8429.58,8596.89 L 8429.58,9002.81 Z " />
<path stroke="none" fill="#000000" transform="matrix(0.0666667 0 0 0.0666667 -442.533 -507.533)" d="M 8343.39,8961.88 L 8312.77,8961.88 L 8312.77,8655.5 L 8343.39,8655.5 L 8343.39,8961.88 Z " />
<path stroke="none" fill="#000000" transform="matrix(0.0666667 0 0 0.0666667 -442.533 -507.533)" d="M 8429.58,8596.89 L 8398.97,8614.57 L 8062.74,8420.44 L 8062.74,8385.09 L 8429.58,8596.89 Z " />
<path stroke="none" fill="#000000" transform="matrix(0.0666667 0 0 0.0666667 -442.533 -507.533)" d="M 8047.43,9223.45 L 8062.74,9214.61 L 8078.05,9223.45 L 8078.05,9611.7 L 8047.43,9629.37 L 8047.43,9223.45 Z " />
<text x="0" y="0" stroke="none" fill="#000000" transform="matrix(0.0666667 0 0 0.0666667 111.159 154.733)" font-style="normal" font-weight="normal" font-size="280px" font-family="Arial" >
OH</text>
<path stroke="none" fill="#000000" transform="matrix(0.0666667 0 0 0.0666667 -442.533 -507.533)" d="M 8047.43,9629.37 L 8078.05,9611.7 L 8301.37,9740.63 L 8286.06,9767.14 L 8047.43,9629.37 Z " />
<text x="0" y="0" stroke="none" fill="#000000" transform="matrix(0.0666667 0 0 0.0666667 64.287 154.733)" font-style="normal" font-weight="normal" font-size="280px" font-family="Arial" >
O</text>
<path stroke="none" fill="#000000" transform="matrix(0.0666667 0 0 0.0666667 -442.533 -507.533)" d="M 8098.19,9632.16 L 8113.49,9658.67 L 7861.64,9804.08 L 7846.33,9777.57 L 8098.19,9632.16 Z " />
<path stroke="none" fill="#000000" transform="matrix(0.0666667 0 0 0.0666667 -442.533 -507.533)" d="M 8055.09,9557.51 L 8070.39,9584.02 L 7818.54,9729.43 L 7803.23,9702.92 L 8055.09,9557.51 Z " />
<text x="0" y="0" stroke="none" fill="#000000" transform="matrix(0.0666667 0 0 0.0666667 134.595 114.141)" font-style="normal" font-weight="normal" font-size="280px" font-family="Arial" >
O</text>
<path stroke="none" fill="#000000" transform="matrix(0.0666667 0 0 0.0666667 -442.533 -507.533)" d="M 8414.28,9029.33 L 8414.28,9011.65 L 8429.58,9002.81 L 8652.91,9131.75 L 8637.6,9158.26 L 8414.28,9029.33 Z " />
<text x="0" y="0" stroke="none" fill="#000000" transform="matrix(0.0666667 0 0 0.0666667 158.55 100.61)" font-style="normal" font-weight="normal" font-size="280px" font-family="Arial" >
CH</text>
<text x="0" y="0" stroke="none" fill="#000000" transform="matrix(0.0666667 0 0 0.0666667 185.511 104.543)" font-style="normal" font-weight="normal" font-size="210px" font-family="Arial" >
3</text>
<path stroke="none" fill="#000000" transform="matrix(0.0666667 0 0 0.0666667 -442.533 -507.533)" d="M 8894.7,9157.87 L 8879.4,9131.36 L 8985.2,9070.28 L 9000.5,9096.79 L 8894.7,9157.87 Z " />
<path stroke="none" fill="#000000" transform="matrix(0.0666667 0 0 0.0666667 -442.533 -507.533)" d="M 10793.9,8385.09 L 10793.9,8420.44 L 10457.6,8614.57 L 10427,8596.89 L 10793.9,8385.09 Z " />
<path stroke="none" fill="#000000" transform="matrix(0.0666667 0 0 0.0666667 -442.533 -507.533)" d="M 10786.2,8489.05 L 10801.5,8515.56 L 10536.2,8668.75 L 10520.9,8642.24 L 10786.2,8489.05 Z " />
<path stroke="none" fill="#000000" transform="matrix(0.0666667 0 0 0.0666667 -442.533 -507.533)" d="M 10427,8596.89 L 10457.6,8614.57 L 10457.6,9002.81 L 10427,9020.49 L 10427,8596.89 Z " />
<path stroke="none" fill="#000000" transform="matrix(0.0666667 0 0 0.0666667 -442.533 -507.533)" d="M 10427,9020.49 L 10457.6,9002.81 L 10793.9,9196.94 L 10793.9,9214.61 L 10778.6,9223.45 L 10427,9020.49 Z " />
<path stroke="none" fill="#000000" transform="matrix(0.0666667 0 0 0.0666667 -442.533 -507.533)" d="M 10520.9,8975.14 L 10536.2,8948.63 L 10801.5,9101.82 L 10786.2,9128.33 L 10520.9,8975.14 Z " />
<path stroke="none" fill="#000000" transform="matrix(0.0666667 0 0 0.0666667 -442.533 -507.533)" d="M 10809.2,9223.45 L 10793.9,9214.61 L 10793.9,9196.94 L 11130.1,9002.81 L 11160.7,9020.49 L 10809.2,9223.45 Z " />
<path stroke="none" fill="#000000" transform="matrix(0.0666667 0 0 0.0666667 -442.533 -507.533)" d="M 11160.7,9020.49 L 11130.1,9002.81 L 11130.1,8614.57 L 11145.4,8605.73 L 11160.7,8614.57 L 11160.7,9020.49 Z " />
<path stroke="none" fill="#000000" transform="matrix(0.0666667 0 0 0.0666667 -442.533 -507.533)" d="M 11074.5,8961.88 L 11043.9,8961.88 L 11043.9,8655.5 L 11074.5,8655.5 L 11074.5,8961.88 Z " />
<path stroke="none" fill="#000000" transform="matrix(0.0666667 0 0 0.0666667 -442.533 -507.533)" d="M 11145.4,8588.06 L 11145.4,8605.73 L 11130.1,8614.57 L 10793.9,8420.44 L 10793.9,8385.09 L 11145.4,8588.06 Z " />
<path stroke="none" fill="#000000" transform="matrix(0.0666667 0 0 0.0666667 -442.533 -507.533)" d="M 10778.6,9223.45 L 10793.9,9214.61 L 10809.2,9223.45 L 10809.2,9611.7 L 10778.6,9629.37 L 10778.6,9223.45 Z " />
<text x="0" y="0" stroke="none" fill="#000000" transform="matrix(0.0666667 0 0 0.0666667 293.234 154.733)" font-style="normal" font-weight="normal" font-size="280px" font-family="Arial" >
OH</text>
<path stroke="none" fill="#000000" transform="matrix(0.0666667 0 0 0.0666667 -442.533 -507.533)" d="M 10778.6,9629.37 L 10809.2,9611.7 L 11032.5,9740.63 L 11017.2,9767.14 L 10778.6,9629.37 Z " />
<text x="0" y="0" stroke="none" fill="#000000" transform="matrix(0.0666667 0 0 0.0666667 246.362 154.733)" font-style="normal" font-weight="normal" font-size="280px" font-family="Arial" >
O</text>
<path stroke="none" fill="#000000" transform="matrix(0.0666667 0 0 0.0666667 -442.533 -507.533)" d="M 10829.3,9632.16 L 10844.6,9658.67 L 10592.8,9804.08 L 10577.5,9777.57 L 10829.3,9632.16 Z " />
<path stroke="none" fill="#000000" transform="matrix(0.0666667 0 0 0.0666667 -442.533 -507.533)" d="M 10786.2,9557.51 L 10801.5,9584.02 L 10549.7,9729.43 L 10534.4,9702.92 L 10786.2,9557.51 Z " />
<text x="0" y="0" stroke="none" fill="#000000" transform="matrix(0.0666667 0 0 0.0666667 316.67 60.018)" font-style="normal" font-weight="normal" font-size="280px" font-family="Arial" >
O</text>
<path stroke="none" fill="#000000" transform="matrix(0.0666667 0 0 0.0666667 -442.533 -507.533)" d="M 11160.7,8614.57 L 11145.4,8605.73 L 11145.4,8588.06 L 11359.7,8464.34 L 11375,8490.85 L 11160.7,8614.57 Z " />
<text x="0" y="0" stroke="none" fill="#000000" transform="matrix(0.0666667 0 0 0.0666667 340.625 73.5487)" font-style="normal" font-weight="normal" font-size="280px" font-family="Arial" >
CH</text>
<text x="0" y="0" stroke="none" fill="#000000" transform="matrix(0.0666667 0 0 0.0666667 367.586 77.482)" font-style="normal" font-weight="normal" font-size="210px" font-family="Arial" >
3</text>
<path stroke="none" fill="#000000" transform="matrix(0.0666667 0 0 0.0666667 -442.533 -507.533)" d="M 11619.9,8491.42 L 11635.2,8464.91 L 11740.9,8525.94 L 11725.6,8552.45 L 11619.9,8491.42 Z " />
<path stroke="none" fill="#000000" transform="matrix(0.0666667 0 0 0.0666667 -442.533 -507.533)" d="M 13509.7,8393.93 L 13525,8402.77 L 13525,8420.44 L 13188.8,8614.57 L 13158.1,8596.89 L 13509.7,8393.93 Z " />
<path stroke="none" fill="#000000" transform="matrix(0.0666667 0 0 0.0666667 -442.533 -507.533)" d="M 13517.3,8489.05 L 13532.6,8515.56 L 13267.3,8668.75 L 13252,8642.24 L 13517.3,8489.05 Z " />
<path stroke="none" fill="#000000" transform="matrix(0.0666667 0 0 0.0666667 -442.533 -507.533)" d="M 13158.1,8596.89 L 13188.8,8614.57 L 13188.8,9002.81 L 13158.1,9020.49 L 13158.1,8596.89 Z " />
<path stroke="none" fill="#000000" transform="matrix(0.0666667 0 0 0.0666667 -442.533 -507.533)" d="M 13158.1,9020.49 L 13188.8,9002.81 L 13525,9196.94 L 13525,9214.61 L 13509.7,9223.45 L 13158.1,9020.49 Z " />
<path stroke="none" fill="#000000" transform="matrix(0.0666667 0 0 0.0666667 -442.533 -507.533)" d="M 13252,8975.14 L 13267.3,8948.63 L 13532.6,9101.82 L 13517.3,9128.33 L 13252,8975.14 Z " />
<path stroke="none" fill="#000000" transform="matrix(0.0666667 0 0 0.0666667 -442.533 -507.533)" d="M 13540.3,9223.45 L 13525,9214.61 L 13525,9196.94 L 13861.2,9002.81 L 13891.8,9020.49 L 13540.3,9223.45 Z " />
<path stroke="none" fill="#000000" transform="matrix(0.0666667 0 0 0.0666667 -442.533 -507.533)" d="M 13891.8,9020.49 L 13861.2,9002.81 L 13861.2,8614.57 L 13891.8,8596.89 L 13891.8,9020.49 Z " />
<path stroke="none" fill="#000000" transform="matrix(0.0666667 0 0 0.0666667 -442.533 -507.533)" d="M 13805.6,8961.88 L 13775,8961.88 L 13775,8655.5 L 13805.6,8655.5 L 13805.6,8961.88 Z " />
<path stroke="none" fill="#000000" transform="matrix(0.0666667 0 0 0.0666667 -442.533 -507.533)" d="M 13891.8,8596.89 L 13861.2,8614.57 L 13525,8420.44 L 13525,8402.77 L 13540.3,8393.93 L 13891.8,8596.89 Z " />
<path stroke="none" fill="#000000" transform="matrix(0.0666667 0 0 0.0666667 -442.533 -507.533)" d="M 13509.7,9223.45 L 13525,9214.61 L 13540.3,9223.45 L 13540.3,9611.7 L 13509.7,9629.37 L 13509.7,9223.45 Z " />
<text x="0" y="0" stroke="none" fill="#000000" transform="matrix(0.0666667 0 0 0.0666667 475.309 154.733)" font-style="normal" font-weight="normal" font-size="280px" font-family="Arial" >
OH</text>
<path stroke="none" fill="#000000" transform="matrix(0.0666667 0 0 0.0666667 -442.533 -507.533)" d="M 13509.7,9629.37 L 13540.3,9611.7 L 13763.6,9740.63 L 13748.3,9767.14 L 13509.7,9629.37 Z " />
<text x="0" y="0" stroke="none" fill="#000000" transform="matrix(0.0666667 0 0 0.0666667 428.437 154.733)" font-style="normal" font-weight="normal" font-size="280px" font-family="Arial" >
O</text>
<path stroke="none" fill="#000000" transform="matrix(0.0666667 0 0 0.0666667 -442.533 -507.533)" d="M 13560.4,9632.16 L 13575.7,9658.67 L 13323.9,9804.08 L 13308.6,9777.57 L 13560.4,9632.16 Z " />
<path stroke="none" fill="#000000" transform="matrix(0.0666667 0 0 0.0666667 -442.533 -507.533)" d="M 13517.3,9557.51 L 13532.6,9584.02 L 13280.8,9729.43 L 13265.5,9702.92 L 13517.3,9557.51 Z " />
<text x="0" y="0" stroke="none" fill="#000000" transform="matrix(0.0666667 0 0 0.0666667 451.873 32.9566)" font-style="normal" font-weight="normal" font-size="280px" font-family="Arial" >
O</text>
<path stroke="none" fill="#000000" transform="matrix(0.0666667 0 0 0.0666667 -442.533 -507.533)" d="M 13540.3,8393.93 L 13525,8402.77 L 13509.7,8393.93 L 13509.7,8154.87 L 13540.3,8154.87 L 13540.3,8393.93 Z " />
<text x="0" y="0" stroke="none" fill="#000000" transform="matrix(0.0666667 0 0 0.0666667 475.828 19.4259)" font-style="normal" font-weight="normal" font-size="280px" font-family="Arial" >
CH</text>
<text x="0" y="0" stroke="none" fill="#000000" transform="matrix(0.0666667 0 0 0.0666667 502.789 23.3592)" font-style="normal" font-weight="normal" font-size="210px" font-family="Arial" >
3</text>
<path stroke="none" fill="#000000" transform="matrix(0.0666667 0 0 0.0666667 -442.533 -507.533)" d="M 13653.9,7940.11 L 13638.6,7913.6 L 13744.4,7852.51 L 13759.7,7879.03 L 13653.9,7940.11 Z " />
<text x="0" y="0" stroke="none" fill="#000000" transform="matrix(0.0666667 0 0 0.0666667 111.191 225.739)" font-style="normal" font-weight="normal" font-size="280px" font-family="Arial" >
4.08</text>
<text x="0" y="0" stroke="none" fill="#000000" transform="matrix(0.0666667 0 0 0.0666667 281.191 225.739)" font-style="normal" font-weight="normal" font-size="280px" font-family="Arial" >
4.10</text>
<text x="0" y="0" stroke="none" fill="#000000" transform="matrix(0.0666667 0 0 0.0666667 467.691 225.739)" font-style="normal" font-weight="normal" font-size="280px" font-family="Arial" >
4.50</text>
<text x="0" y="0" stroke="none" fill="#000000" transform="matrix(0.0666667 0 0 0.0666667 7.73667 260.443)" font-style="normal" font-weight="normal" font-size="280px" font-family="Arial" >
mp </text>
<text x="0" y="0" stroke="none" fill="#000000" transform="matrix(0.0666667 0 0 0.0666667 38.8539 260.443)" font-style="normal" font-weight="normal" font-size="280px" font-family="Arial" >
/ </text>
<text x="0" y="0" stroke="none" fill="#000000" transform="matrix(0.0666667 0 0 0.0666667 49.2262 260.443)" font-style="normal" font-weight="normal" font-size="280px" font-family="Arial" >
°C</text>
<path stroke="none" fill="#000000" transform="matrix(0.0666667 0 0 0.0666667 -442.533 -507.533)" d="M 14915.9,11190 L 6684.12,11190 L 6684.12,11170 L 14915.9,11170 Z " />
<text x="0" y="0" stroke="none" fill="#000000" transform="matrix(0.0666667 0 0 0.0666667 10.4007 225.739)" font-style="normal" font-weight="normal" font-size="280px" font-family="Arial" >
p</text>
<text x="0" y="0" stroke="none" fill="#000000" transform="matrix(0.0666667 0 0 0.0666667 20.7822 225.739)" font-style="italic" font-weight="normal" font-size="280px" font-family="Arial" >
K</text>
<text x="0" y="0" stroke="none" fill="#000000" transform="matrix(0.0666667 0 0 0.0666667 33.2327 229.673)" font-style="normal" font-weight="normal" font-size="210px" font-family="Arial" >
a</text>
<text x="0" y="0" stroke="none" fill="#000000" transform="matrix(0.0666667 0 0 0.0666667 111.191 260.443)" font-style="normal" font-weight="normal" font-size="280px" font-family="Arial" >
98–100</text>
<text x="0" y="0" stroke="none" fill="#000000" transform="matrix(0.0666667 0 0 0.0666667 281.191 260.443)" font-style="normal" font-weight="normal" font-size="280px" font-family="Arial" >
105–107</text>
<text x="0" y="0" stroke="none" fill="#000000" transform="matrix(0.0666667 0 0 0.0666667 467.691 260.443)" font-style="normal" font-weight="normal" font-size="280px" font-family="Arial" >
182–185</text>
<path stroke="none" fill="#000000" transform="matrix(0.0666667 0 0 0.0666667 -442.533 -507.533)" d="M 14915.9,10666 L 6684.12,10666 L 6684.12,10635 L 14915.9,10635 Z " />
<path stroke="none" fill="#000000" transform="matrix(0.0666667 0 0 0.0666667 -442.533 -507.533)" d="M 14915.9,11725 L 6684.12,11725 L 6684.12,11694 L 14915.9,11694 Z " />
</svg>
